<?xml version="1.0" encoding="utf-8"?>
<!-- Generator: Adobe Illustrator 23.0.0, SVG Export Plug-In . SVG Version: 6.00 Build 0)  -->
<svg version="1.1" id="Layer_1" xmlns="http://www.w3.org/2000/svg" xmlns:xlink="http://www.w3.org/1999/xlink" x="0px" y="0px"
	 viewBox="0 0 873.4 288" style="enable-background:new 0 0 873.4 288;" xml:space="preserve">
<style type="text/css">
	.st0{fill:#252323;}
	.st1{fill:#EF476F;}
	.st2{fill:none;}
</style>
<g>
	<rect x="178.6" y="140.4" class="st0" width="15.3" height="7.2"/>
	<rect x="86.8" y="140.4" class="st0" width="15.3" height="7.2"/>
	<rect x="136.6" y="180" class="st0" width="7.7" height="14.4"/>
	<rect x="136.6" y="93.6" class="st0" width="7.7" height="14.4"/>
	<polygon class="st0" points="164.7,115.9 175.5,105.7 181,110.8 170.2,121 	"/>
	<polygon points="99.8,177.1 110.6,167 116.1,172.1 105.2,182.3 	"/>
	<polygon class="st0" points="164.8,172 170.2,166.9 181.1,177.1 175.6,182.2 	"/>
	<polygon class="st0" points="99.7,110.9 105.2,105.8 116,116 110.5,121.1 	"/>
	<path class="st0" d="M270.5,98.1c0,13-5.4,27.8-15.7,43.2c-16.3,24.1-43.4,47.1-76.1,65s-67.5,28.2-97.9,29.5
		c-31.2,1.4-54.1-7.2-64.7-24.3s-6.9-40,9.8-64.8c16.3-24.1,43.4-47.1,76.1-65s67.5-28.2,97.9-29.5c31.2-1.2,54.1,7.3,64.7,24.5
		C268.5,82.9,270.5,90.2,270.5,98.1z M18,189.9c0,6.7,1.5,12.8,5,18.2c9,14.6,29.5,21.9,57.6,20.9c29.1-1.2,62.6-11.4,94.5-28.6
		c31.8-17.3,58-39.4,73.6-62.7c15.1-22.3,18.6-42.8,9.8-57.4c-9-14.6-29.5-21.9-57.6-20.9c-29.1,1.2-62.6,11.4-94.5,28.6
		c-31.8,17.3-58,39.4-73.6,62.7C22.7,164.7,18,178.2,18,189.9z"/>
	<path class="st0" d="M270.5,189.9c0,7.9-1.9,15.3-5.9,21.6c-10.5,17.1-33.3,25.8-64.7,24.5c-30.2-1.2-65-11.7-97.9-29.5
		s-59.9-40.8-76.1-65C9,116.6,5.5,93.6,16,76.6c10.5-17.1,33.3-25.8,64.7-24.5c30.2,1.2,65,11.7,97.9,29.5s59.9,40.8,76.1,65
		C265.3,162,270.5,176.7,270.5,189.9L270.5,189.9z M18,98.1c0,11.7,5,25,14.5,39.2c15.7,23,41.7,45.3,73.6,62.7
		c31.8,17.3,65.2,27.4,94.5,28.6c28.1,1.2,48.6-6.3,57.6-20.9c9-14.6,5.5-34.9-9.8-57.4c-15.7-23-41.7-45.3-73.6-62.7
		C143,70.3,109.6,60.3,80.3,59c-28.1-1.1-48.6,6.3-57.6,20.9C19.5,85.5,18,91.4,18,98.1L18,98.1z"/>
	<path class="st0" d="M216.9,144c0,35.7-7.7,69.3-21.6,94.5c-14.5,26.1-34,40.5-54.9,40.5s-40.4-14.4-54.7-40.5
		c-14-25.2-21.8-58.9-21.8-94.5s7.6-69.3,21.6-94.5C100,23.4,119.5,9,140.4,9s40.4,14.4,54.7,40.5C209.1,74.7,216.9,108.3,216.9,144
		z M71.5,144c0,70.4,30.8,127.8,68.9,127.8s68.9-57.4,68.9-127.8S178.5,16.2,140.4,16.2S71.5,73.6,71.5,144L71.5,144z"/>
	<ellipse class="st1" cx="140.4" cy="144" rx="28.7" ry="27"/>
	<path class="st0" d="M172.9,144c0,16.9-14.5,30.6-32.5,30.6S107.9,161,107.9,144s14.5-30.6,32.5-30.6S172.9,127.1,172.9,144z
		 M115.5,144c0,13,11.1,23.4,24.9,23.4s24.9-10.4,24.9-23.4s-11.1-23.4-24.9-23.4S115.5,131,115.5,144z"/>
</g>
<g id="Layer_3">
	<g>
		<path class="st1" d="M415.9,109.6c-0.5,0.9-1,1.4-1.6,1.8s-1.3,0.6-2.2,0.6c-0.8,0-1.8-0.3-2.8-1c-1-0.6-2.3-1.3-3.7-2
			c-1.4-0.8-3.1-1.4-5-2s-4.1-1-6.7-1c-2.3,0-4.4,0.3-6.1,0.8c-1.7,0.6-3.2,1.2-4.4,2.2c-1.2,1-2.1,2.1-2.7,3.4s-0.9,2.8-0.9,4.3
			c0,2,0.6,3.7,1.8,5.1c1.2,1.3,2.8,2.5,4.7,3.4c2,1,4.2,1.8,6.7,2.6c2.5,0.8,5.1,1.5,7.7,2.4s5.2,1.8,7.7,3
			c2.5,1.1,4.7,2.6,6.7,4.3s3.5,3.8,4.7,6.3s1.8,5.5,1.8,9.1c0,3.8-0.7,7.4-2.1,10.9c-1.4,3.3-3.4,6.3-6.1,8.8s-6,4.5-9.8,5.9
			c-3.9,1.4-8.3,2.2-13.3,2.2c-2.9,0-5.7-0.3-8.5-0.8c-2.8-0.6-5.5-1.3-8-2.3c-2.6-1-5-2.2-7.2-3.5s-4.2-3-6-4.6l4.9-7.6
			c0.5-0.6,1-1,1.7-1.4c0.6-0.4,1.4-0.6,2.2-0.6c1,0,2.2,0.4,3.4,1.2c1.2,0.8,2.6,1.7,4.3,2.7c1.6,1,3.6,1.9,5.8,2.7
			c2.2,0.8,4.9,1.2,8,1.2c4.8,0,8.5-1,11.1-3.2c2.6-2.1,3.9-5.2,3.9-9.3c0-2.3-0.6-4.1-1.8-5.5c-1.2-1.4-2.8-2.6-4.7-3.5
			c-2-1-4.2-1.8-6.7-2.5s-5-1.4-7.6-2.2s-5.1-1.7-7.6-2.9s-4.7-2.6-6.7-4.3c-2-1.8-3.5-4-4.7-6.7s-1.8-5.9-1.8-9.8
			c0-3.1,0.7-6.1,2-9.1s3.2-5.5,5.8-7.8c2.5-2.3,5.6-4.1,9.3-5.5c3.7-1.3,7.9-2.1,12.6-2.1c5.3,0,10.3,0.8,14.8,2.4
			s8.3,3.8,11.5,6.6L415.9,109.6z"/>
		<path class="st1" d="M496.7,159.3c0.9,0,1.7,0.4,2.4,1l6.6,6.8c-3.7,4.3-8.2,7.5-13.5,9.8c-5.4,2.3-11.8,3.4-19.3,3.4
			c-6.7,0-12.7-1-18.1-3.2s-9.9-5.2-13.7-9.1c-3.8-3.8-6.7-8.5-8.7-13.8s-3-11.2-3-17.6s1.1-12.3,3.4-17.7s5.4-9.9,9.5-13.7
			c4.1-3.8,9-6.9,14.7-9s12-3.2,18.8-3.2c6.7,0,12.6,1,17.6,3.1c5,2,9.3,4.7,12.9,8l-5.6,7.3c-0.3,0.5-0.8,0.9-1.3,1.2
			c-0.5,0.4-1.2,0.6-2.2,0.6s-1.9-0.4-2.9-1s-2.3-1.4-3.8-2.3s-3.5-1.6-5.8-2.3c-2.4-0.7-5.3-1-9-1c-4.3,0-8.2,0.7-11.7,2.1
			c-3.6,1.4-6.6,3.4-9.2,6s-4.6,5.7-6,9.4s-2.2,7.9-2.2,12.5c0,4.8,0.7,9.1,2.2,12.8c1.4,3.7,3.4,6.9,5.8,9.4
			c2.5,2.6,5.4,4.5,8.7,5.9c3.3,1.3,6.9,2,10.8,2c2.3,0,4.4-0.1,6.2-0.4c1.9-0.2,3.6-0.6,5.1-1.1c1.6-0.5,3-1.1,4.4-2
			c1.4-0.8,2.8-1.8,4.2-3c0.4-0.4,0.9-0.7,1.3-0.9C495.6,159.4,496.1,159.3,496.7,159.3z"/>
		<path class="st1" d="M537.3,179.5h-16.9V94h16.9V179.5z"/>
		<path class="st1" d="M614.6,94v12.6h-40.1v23.7h31.6v12.3h-31.6v24.1h40.1v12.7h-57V94H614.6z"/>
		<path class="st1" d="M639.9,94.1c0.5,0.1,0.9,0.2,1.3,0.4c0.4,0.2,0.8,0.5,1.2,0.8c0.4,0.4,0.8,0.8,1.3,1.3l47.4,57.1
			c-0.2-1.3-0.3-2.8-0.3-4c-0.1-1.3-0.1-2.6-0.1-3.7V94h14.8v85.4h-8.7c-1.3,0-2.4-0.2-3.3-0.6c-0.9-0.4-1.7-1.1-2.6-2.1l-47.3-56.9
			c0.1,1.2,0.2,2.5,0.3,3.7s0.1,2.4,0.1,3.4v52.4h-14.8V94h8.8C638.8,94,639.4,94,639.9,94.1z"/>
		<path class="st1" d="M785.9,159.3c0.9,0,1.7,0.4,2.4,1l6.6,6.8c-3.7,4.3-8.2,7.5-13.5,9.8c-5.4,2.3-11.8,3.4-19.3,3.4
			c-6.7,0-12.7-1-18.1-3.2c-5.4-2.2-9.9-5.2-13.7-9.1c-3.8-3.8-6.7-8.5-8.7-13.8s-3-11.2-3-17.6s1.1-12.3,3.4-17.7
			c2.3-5.3,5.4-9.9,9.5-13.7c4.1-3.8,9-6.9,14.7-9s12-3.2,18.8-3.2c6.7,0,12.6,1,17.6,3.1c5,2,9.3,4.7,12.9,8l-5.6,7.3
			c-0.3,0.5-0.8,0.9-1.3,1.2c-0.5,0.4-1.2,0.6-2.2,0.6s-1.9-0.4-2.9-1s-2.3-1.4-3.8-2.3s-3.5-1.6-5.8-2.3s-5.3-1-9-1
			c-4.3,0-8.2,0.7-11.7,2.1c-3.6,1.4-6.6,3.4-9.2,6c-2.6,2.6-4.6,5.7-6,9.4s-2.2,7.9-2.2,12.5c0,4.8,0.7,9.1,2.2,12.8
			c1.4,3.7,3.4,6.9,5.8,9.4c2.5,2.6,5.4,4.5,8.7,5.9c3.3,1.3,6.9,2,10.8,2c2.3,0,4.4-0.1,6.2-0.4c1.8-0.3,3.6-0.6,5.1-1.1
			c1.6-0.5,3-1.1,4.4-2c1.4-0.8,2.8-1.8,4.2-3c0.4-0.4,0.9-0.7,1.3-0.9C784.8,159.4,785.3,159.3,785.9,159.3z"/>
		<path class="st1" d="M864.6,94v12.6h-40.1v23.7h31.6v12.3h-31.6v24.1h40.1v12.7h-57V94H864.6z"/>
	</g>
	<g>
		<rect x="797.7" y="162.7" class="st2" width="3.7" height="0.8"/>
	</g>
	<g>
		<rect x="593.6" y="304.9" class="st2" width="1.6" height="6.1"/>
	</g>
	<g>
		<rect x="288.4" y="42.4" class="st2" width="3.8" height="0.6"/>
	</g>
</g>
<g>
	<g>
		<path class="st0" d="M408.2,67.1c0.6,0,1.2,0.3,1.7,0.9l4.6,6c-2.6,3.8-5.7,6.7-9.5,8.8c-3.8,2-8.3,3-13.5,3
			c-4.7,0-8.9-1-12.7-2.9c-3.8-1.9-7-4.6-9.6-8c-2.7-3.4-4.7-7.5-6.1-12.3S361,52.7,361,47s0.8-10.9,2.4-15.6s3.8-8.8,6.7-12.2
			c2.9-3.4,6.3-6.1,10.3-8s8.4-2.9,13.2-2.9c4.7,0,8.8,0.9,12.3,2.7s6.5,4.2,9,7.2l-3.9,6.6c-0.2,0.4-0.5,0.8-0.9,1.1
			c-0.4,0.3-0.9,0.5-1.5,0.5c-0.7,0-1.4-0.3-2.1-0.9s-1.6-1.3-2.7-2s-2.4-1.4-4.1-2c-1.6-0.6-3.7-0.9-6.3-0.9c-3,0-5.7,0.6-8.2,1.9
			c-2.5,1.2-4.6,3-6.4,5.3s-3.2,5.1-4.2,8.4s-1.5,7-1.5,11.1c0,4.3,0.5,8.1,1.5,11.4c1,3.3,2.4,6.1,4.1,8.4s3.8,4,6.1,5.2
			s4.8,1.8,7.5,1.8c1.6,0,3.1-0.1,4.4-0.3c1.3-0.2,2.5-0.5,3.6-1s2.1-1,3.1-1.8c1-0.7,1.9-1.6,2.9-2.6c0.3-0.3,0.6-0.6,0.9-0.8
			C407.5,67.2,407.9,67.1,408.2,67.1z"/>
		<path class="st0" d="M477.6,47.1c0,5.6-0.8,10.7-2.3,15.4s-3.7,8.8-6.5,12.3s-6.2,6.2-10.1,8.1s-8.3,2.9-13.1,2.9
			c-4.8,0-9.2-1-13.1-2.9c-4-1.9-7.3-4.6-10.2-8.1c-2.8-3.5-5-7.6-6.5-12.3s-2.3-9.9-2.3-15.4c0-5.6,0.8-10.7,2.3-15.4
			s3.7-8.8,6.5-12.3s6.2-6.2,10.2-8.1s8.3-2.9,13.1-2.9c4.8,0,9.1,1,13.1,2.9c3.9,2,7.3,4.7,10.1,8.1c2.8,3.4,5,7.5,6.5,12.3
			C476.8,36.4,477.6,41.5,477.6,47.1z M465.5,47.1c0-4.2-0.5-7.9-1.4-11.2s-2.2-6.1-4-8.4c-1.7-2.3-3.8-4.1-6.3-5.3
			s-5.2-1.8-8.3-1.8c-3.1,0-5.9,0.6-8.4,1.8c-2.5,1.2-4.6,3-6.3,5.3c-1.7,2.3-3.1,5.1-4,8.4s-1.4,7-1.4,11.2s0.5,7.9,1.4,11.2
			s2.3,6.1,4,8.4s3.8,4,6.3,5.3c2.5,1.2,5.3,1.8,8.4,1.8s5.9-0.6,8.3-1.8c2.5-1.2,4.6-3,6.3-5.3c1.7-2.3,3-5.1,4-8.4
			C465,55,465.5,51.3,465.5,47.1z"/>
		<path class="st0" d="M513.5,57c0.4,1.2,0.8,2.4,1.2,3.6c0.4-1.3,0.8-2.5,1.3-3.7c0.4-1.2,0.9-2.4,1.4-3.5l18.7-42
			c0.2-0.5,0.5-0.9,0.7-1.3c0.2-0.3,0.5-0.5,0.8-0.7c0.3-0.1,0.6-0.2,1-0.3c0.4,0,0.8-0.1,1.4-0.1h8.9v76h-10.4V36
			c0-0.9,0-1.9,0.1-3c0-1.1,0.1-2.2,0.2-3.3l-19.1,43c-0.4,1-1,1.7-1.7,2.3c-0.7,0.5-1.5,0.8-2.5,0.8h-1.6c-0.9,0-1.8-0.3-2.5-0.8
			c-0.7-0.5-1.3-1.3-1.7-2.3l-19.3-43.1c0.1,1.2,0.2,2.3,0.2,3.4c0,1.1,0.1,2.1,0.1,3.1v49h-10.4V9.2h8.9c0.5,0,1,0,1.4,0.1
			c0.4,0,0.7,0.1,1,0.3c0.3,0.1,0.6,0.4,0.9,0.7s0.5,0.7,0.7,1.3l18.9,42.1C512.6,54.7,513,55.8,513.5,57z"/>
		<path class="st0" d="M588.3,57c0.4,1.2,0.8,2.4,1.2,3.6c0.4-1.3,0.8-2.5,1.3-3.7c0.4-1.2,0.9-2.4,1.4-3.5l18.7-42
			c0.2-0.5,0.5-0.9,0.7-1.3c0.2-0.3,0.5-0.5,0.8-0.7c0.3-0.1,0.6-0.2,1-0.3c0.4,0,0.8-0.1,1.4-0.1h8.9v76h-10.3V36
			c0-0.9,0-1.9,0.1-3c0-1.1,0.1-2.2,0.2-3.3l-19.1,43c-0.4,1-1,1.7-1.7,2.3c-0.7,0.5-1.5,0.8-2.5,0.8h-1.6c-0.9,0-1.8-0.3-2.5-0.8
			s-1.3-1.3-1.7-2.3l-19.4-43.1c0.1,1.2,0.2,2.3,0.2,3.4c0,1.1,0.1,2.1,0.1,3.1v49h-10.4V9.2h8.9c0.5,0,1,0,1.4,0.1
			c0.4,0,0.7,0.1,1,0.3c0.3,0.1,0.6,0.4,0.9,0.7s0.5,0.7,0.7,1.3l18.9,42.1C587.4,54.7,587.9,55.8,588.3,57z"/>
		<path class="st0" d="M655.5,73.6c2.3,0,4.3-0.5,6.1-1.4s3.3-2.2,4.6-3.8c1.2-1.6,2.2-3.6,2.8-6c0.7-2.3,1-5,1-7.9V9.2h11.8v45.4
			c0,4.5-0.6,8.7-1.8,12.5s-3,7.1-5.2,9.9c-2.3,2.8-5,4.9-8.3,6.5c-3.2,1.6-6.9,2.3-10.9,2.3s-7.7-0.8-10.9-2.3
			c-3.2-1.6-6-3.7-8.3-6.5s-4-6.1-5.2-9.9s-1.8-8-1.8-12.5V9.2h11.8v45.3c0,2.9,0.3,5.5,1,7.9c0.7,2.3,1.6,4.3,2.8,6
			s2.7,2.9,4.5,3.9S653.2,73.6,655.5,73.6z"/>
		<path class="st0" d="M694.7,9.3c0.3,0.1,0.7,0.2,0.9,0.3c0.3,0.2,0.5,0.4,0.8,0.7s0.6,0.7,0.9,1.2l33.2,50.7
			c-0.1-1.2-0.2-2.4-0.2-3.6c0-1.2-0.1-2.3-0.1-3.3V9.2h10.4V85h-6.1c-0.9,0-1.7-0.2-2.3-0.5s-1.2-1-1.8-1.9l-33.1-50.5
			c0.1,1.1,0.2,2.2,0.2,3.3s0.1,2.1,0.1,3V85h-10.4V9.2h6.2C693.9,9.2,694.3,9.2,694.7,9.3z"/>
		<path class="st0" d="M760.1,85h-11.8V9.2h11.8V85z"/>
		<path class="st0" d="M812.4,9.2v11.6h-19V85h-11.8V20.8L759.4,21l-2-12L812.4,9.2z"/>
		<path class="st0" d="M841.4,55.5V85h-11.8V55.5l-23-46.3H817c1,0,1.8,0.3,2.4,0.9c0.6,0.6,1.1,1.3,1.5,2.3l11.6,25.3
			c0.7,1.5,1.3,2.9,1.8,4.3c0.5,1.3,0.9,2.7,1.4,4c0.4-1.3,0.8-2.7,1.3-4s1.1-2.8,1.7-4.2l11.5-25.3c0.3-0.8,0.8-1.5,1.4-2.1
			c0.6-0.7,1.5-1,2.5-1h10.4L841.4,55.5z"/>
	</g>
	<g>
		<rect x="512.4" y="13.4" class="st2" width="3" height="3.2"/>
	</g>
	<g>
		<rect x="695.6" y="29.4" class="st2" width="0.4" height="2.4"/>
	</g>
	<g>
		<rect x="534.4" y="104.1" class="st2" width="1" height="3.7"/>
	</g>
	<g>
		<rect x="765.5" y="271.8" class="st2" width="143.9" height="65.2"/>
	</g>
	<g>
		<rect x="775.6" y="287.7" class="st2" width="5.3" height="5.3"/>
	</g>
	<g>
		<rect x="842.7" y="309.2" class="st2" width="8.7" height="5.8"/>
	</g>
	<g>
		<rect x="945.4" y="172.4" class="st2" width="2" height="2.6"/>
	</g>
</g>
<g id="Layer_4">
	<g>
		<path class="st0" d="M409.7,244.6c0.6,1.5,1.2,2.9,1.8,4.4c0.6-1.5,1.2-3,1.9-4.5s1.3-2.9,2.1-4.3l27.6-51.6
			c0.3-0.6,0.7-1.1,1.1-1.5s0.8-0.7,1.2-0.8c0.5-0.2,1-0.3,1.5-0.3c0.6,0,1.2-0.1,2-0.1H462V279h-15.3v-60.2c0-1.1,0-2.3,0.1-3.6
			s0.2-2.7,0.3-4L418.9,264c-0.6,1.2-1.5,2.1-2.5,2.8c-1,0.7-2.2,1-3.6,1h-2.4c-1.4,0-2.6-0.3-3.6-1s-1.9-1.6-2.5-2.8l-28.6-53
			c0.2,1.4,0.3,2.8,0.4,4.1s0.1,2.6,0.1,3.7V279h-15.3v-93.2H374c0.8,0,1.4,0,2,0.1c0.6,0,1.1,0.2,1.5,0.3c0.5,0.2,0.9,0.4,1.3,0.8
			c0.4,0.4,0.8,0.9,1.1,1.5l27.9,51.7C408.4,241.6,409,243.1,409.7,244.6z"/>
		<path class="st0" d="M508.6,265c3.4,0,6.4-0.6,9-1.7c2.6-1.1,4.9-2.7,6.7-4.7c1.8-2,3.2-4.4,4.2-7.4c1-2.9,1.5-6.1,1.5-9.7v-55.8
			h17.3v55.9c0,5.6-0.9,10.7-2.7,15.3c-1.8,4.7-4.4,8.8-7.7,12.2c-3.4,3.4-7.4,6.1-12.2,8s-10.1,2.8-16.1,2.8s-11.4-0.9-16.1-2.8
			c-4.8-1.9-8.8-4.5-12.2-8c-3.3-3.4-5.9-7.5-7.7-12.2c-1.8-4.7-2.7-9.8-2.7-15.3v-55.8h17.5v55.7c0,3.5,0.5,6.8,1.5,9.7
			s2.4,5.4,4.2,7.4c1.8,2,4,3.6,6.7,4.7C502.3,264.4,505.3,265,508.6,265z"/>
		<path class="st0" d="M605.3,202.7c-0.5,0.9-1,1.6-1.6,2s-1.4,0.6-2.2,0.6c-0.9,0-1.8-0.3-2.9-1c-1.1-0.7-2.3-1.4-3.8-2.2
			s-3.2-1.5-5.1-2.2c-2-0.7-4.3-1-6.9-1c-2.4,0-4.5,0.3-6.3,0.9c-1.8,0.6-3.3,1.4-4.5,2.4s-2.1,2.2-2.7,3.7c-0.6,1.4-0.9,3-0.9,4.7
			c0,2.2,0.6,4,1.8,5.5c1.2,1.4,2.8,2.7,4.9,3.7c2,1,4.3,1.9,6.9,2.7c2.6,0.8,5.2,1.7,7.9,2.6c2.7,0.9,5.3,2,7.9,3.2
			c2.6,1.2,4.9,2.7,6.9,4.6s3.6,4.1,4.9,6.9c1.2,2.7,1.8,6,1.8,9.9c0,4.2-0.7,8.2-2.2,11.8s-3.5,6.9-6.3,9.6s-6.2,4.8-10.2,6.5
			c-4,1.6-8.6,2.3-13.7,2.3c-3,0-5.9-0.3-8.8-0.9c-2.9-0.6-5.6-1.4-8.3-2.5c-2.6-1.1-5.1-2.3-7.4-3.8s-4.4-3.1-6.2-5l5-8.3
			c0.5-0.6,1-1.1,1.7-1.5s1.4-0.6,2.2-0.6c1.1,0,2.2,0.4,3.5,1.3c1.2,0.9,2.7,1.8,4.4,2.9s3.7,2,6,2.9s5.1,1.3,8.3,1.3
			c4.9,0,8.8-1.2,11.5-3.5s4.1-5.7,4.1-10.1c0-2.4-0.6-4.4-1.8-6s-2.8-2.8-4.9-3.9c-2-1-4.3-1.9-6.9-2.6c-2.6-0.7-5.2-1.5-7.9-2.4
			c-2.7-0.9-5.3-1.9-7.9-3.1c-2.6-1.2-4.9-2.7-6.9-4.7c-2-1.9-3.6-4.3-4.9-7.3c-1.2-2.9-1.8-6.5-1.8-10.7c0-3.4,0.7-6.7,2-9.9
			c1.4-3.2,3.3-6.1,5.9-8.6c2.6-2.5,5.8-4.4,9.6-6c3.8-1.5,8.1-2.2,13-2.2c5.5,0,10.6,0.9,15.2,2.6c4.6,1.7,8.6,4.1,11.9,7.2
			L605.3,202.7z"/>
		<path class="st0" d="M673.7,185.7v13.8h-41.3v25.8H665v13.3h-32.6v26.3h41.3v13.8h-58.8v-93.2h58.8V185.7z"/>
		<path class="st0" d="M716.6,265c3.4,0,6.4-0.6,9-1.7s4.9-2.7,6.7-4.7s3.2-4.4,4.2-7.4c1-2.9,1.5-6.1,1.5-9.7v-55.8h17.3v55.9
			c0,5.6-0.9,10.7-2.7,15.3c-1.8,4.7-4.4,8.8-7.7,12.2c-3.4,3.4-7.4,6.1-12.2,8s-10.1,2.8-16.1,2.8s-11.4-0.9-16.1-2.8
			c-4.8-1.9-8.8-4.5-12.2-8c-3.3-3.4-5.9-7.5-7.7-12.2s-2.7-9.8-2.7-15.3v-55.8h17.3v55.7c0,3.5,0.5,6.8,1.5,9.7s2.4,5.4,4.2,7.4
			s4,3.6,6.7,4.7C710.2,264.4,713.2,265,716.6,265z"/>
		<path class="st0" d="M812.1,244.6c0.6,1.5,1.2,2.9,1.8,4.4c0.6-1.5,1.2-3,1.9-4.5c0.6-1.5,1.3-2.9,2.1-4.3l27.6-51.6
			c0.3-0.6,0.7-1.1,1.1-1.5s0.8-0.7,1.2-0.8c0.5-0.2,1-0.3,1.5-0.3c0.6,0,1.2-0.1,2-0.1h13.1V279h-15.3v-60.2c0-1.1,0-2.3,0.1-3.6
			s0.2-2.7,0.3-4L821.3,264c-0.6,1.2-1.5,2.1-2.5,2.8c-1,0.7-2.2,1-3.6,1h-2.4c-1.4,0-2.6-0.3-3.6-1s-1.9-1.6-2.5-2.8l-28.6-53
			c0.2,1.4,0.3,2.8,0.4,4.1c0.1,1.3,0.1,2.6,0.1,3.7V279h-15.3v-93.2h13.1c0.8,0,1.4,0,2,0.1c0.6,0,1.1,0.2,1.5,0.3
			c0.5,0.2,0.9,0.4,1.3,0.8c0.4,0.4,0.8,0.9,1.1,1.5l27.9,51.7C810.8,241.6,811.5,243.1,812.1,244.6z"/>
	</g>
</g>
</svg>
